<mxfile host="app.diagrams.net" modified="2022-11-21T07:07:14.791Z" agent="5.0 (Windows NT 10.0; Win64; x64) AppleWebKit/537.36 (KHTML, like Gecko) Chrome/107.0.0.0 Safari/537.36" etag="kyVtepnb7ZqBH7mSHDO5" version="20.5.3" type="github">
  <diagram id="wPDYnrMMsrVUktS3hOfH" name="Страница 1">
    <mxGraphModel dx="1811" dy="1144" grid="1" gridSize="10" guides="1" tooltips="1" connect="1" arrows="1" fold="1" page="1" pageScale="1" pageWidth="827" pageHeight="1169" math="0" shadow="0">
      <root>
        <mxCell id="0" />
        <mxCell id="1" parent="0" />
        <mxCell id="OiXg59oZUQ7tXWbWP7Sv-1" value="GRLS" style="shape=umlFrame;whiteSpace=wrap;html=1;" vertex="1" parent="1">
          <mxGeometry width="1220" height="730" as="geometry" />
        </mxCell>
      </root>
    </mxGraphModel>
  </diagram>
</mxfile>
